Simulation
nRows=34
nColumns=15
endheader
time  TH_x TH_y TH_z SC_y  SC_z  SC_x  AC_y  AC_z  AC_x  GH_y  GH_z  GH_yy  EL_x  PS_y
1.4749999999999996  0.000000  0.000000  0.000000  -37.643010942701665  6.804527228180715  30.51131619719327  53.99733051395937  15.033442702405573  6.713656816124402  -16.20675721892933  34.05527535865518  -6.080848546121147  23.57455358323719  120.000000
1.5044999999999995  0.000000  0.000000  0.000000  -37.690472712220476  6.835178962692716  31.022855917721543  54.08495409601099  14.716496751648561  6.665418644331033  -16.520498868846435  34.0927216319888  -5.738263603135415  23.62654104064185  120.000000
1.5339999999999996  0.000000  0.000000  0.000000  -37.670393246399236  6.827768835574115  31.42505253570213  54.16016580721234  14.43595835742695  6.530532177744722  -16.751918320909894  34.013478880455  -5.3742640131887915  23.638185720235235  120.000000
1.5634999999999994  0.000000  0.000000  0.000000  -37.579830566142256  6.783551349329475  31.708728227243764  54.2203688705601  14.195031364092271  6.3097068982862785  -16.905023140569455  33.8140202006566  -4.990077881916529  23.616292003939748  120.000000
1.5929999999999995  0.000000  0.000000  0.000000  -37.42094045468229  6.707592459918953  31.86387942104887  54.265086616433244  13.99595522148267  6.0062481406823185  -16.973311555178554  33.492009731849215  -4.606497826430032  23.568363102241808  120.000000
1.6224999999999996  0.000000  0.000000  0.000000  -37.20376130321177  6.611598654078954  31.878810815815168  54.29968307101563  13.838776189747175  5.624206505385474  -16.93858485328851  33.04718341972509  -4.26365682191519  23.501552065074318  120.000000
1.6519999999999995  0.000000  0.000000  0.000000  -36.94418795853308  6.511365658282571  31.735261234465973  54.33880176667355  13.716109326181218  5.1676326144308815  -16.771299859362177  32.482048653630805  -4.016386515749466  23.421940091400298  120.000000
1.6814999999999996  0.000000  0.000000  0.000000  -36.66283167872053  6.424503437999427  31.40815733165084  54.404579773553856  13.609956055236731  4.642604175334092  -16.431844135512527  31.802537579948105  -3.925799661149431  23.333552009281984  120.000000
1.7109999999999994  0.000000  0.000000  0.000000  -36.37957914430183  6.364142483524817  30.871627054733757  54.517129284966146  13.49538355879868  4.060757386210643  -15.872911721678205  31.022957472274406  -4.05050487559035  23.237502496776496  120.000000
1.7404999999999995  0.000000  0.000000  0.000000  -36.11199060270865  6.334237535639109  30.108460362148733  54.682223264022  13.345775710216934  3.445329414854604  -15.04166413390838  30.170112652252474  -4.438835305991764  23.131890683079416  120.000000
1.7699999999999996  0.000000  0.000000  0.000000  -35.87145070146811  6.326850972316113  29.114344074214664  54.88486985093476  13.138741886207756  2.831811789677756  -13.88923222077128  29.283966682554073  -5.118816316987801  23.011623679414257  120.000000
1.7994999999999994  0.000000  0.000000  0.000000  -35.662318350652555  6.326178018031442  27.900174406016994  55.09448938831074  12.861733425386381  2.2600551917308183  -12.388417867614523  28.409111112574877  -6.084665374018509  22.86801854946105  120.000000
1.8289999999999995  0.000000  0.000000  0.000000  -35.480082293150105  6.31528905171703  26.486481553992867  55.27547444284115  12.514796075681284  1.7655026918326808  -10.548794263253816  27.584723256851024  -7.288409803997998  22.69006525837208  120.000000
1.8584999999999994  0.000000  0.000000  0.000000  -35.313932474339346  6.279030533451944  24.903095707479288  55.39602569448086  12.107230268376409  1.3736641485034478  -8.42300159259094  26.835948936676534  -8.640518052207774  22.467366953236592  120.000000
1.8879999999999995  0.000000  0.000000  0.000000  -35.14850085269286  6.207399015599771  23.184046995518358  55.43377127348437  11.654652119588981  1.0988843942997601  -6.099361291522553  26.170781864043846  -10.023149398824469  22.193898542800643  120.000000
1.9174999999999995  0.000000  0.000000  0.000000  -34.96629942353973  6.098076286878242  21.36881232305157  55.378732893180754  11.174534593403392  0.94267685518403  -3.6863247759087994  25.579788275782374  -11.309982041175976  21.870052238792717  120.000000
1.9469999999999994  0.000000  0.000000  0.000000  -34.749504905604674  5.953760758673843  19.49848875277212  55.231344865115354  10.683102653899516  0.8963485015171877  -1.2942144016583226  25.04013576260382  -12.386937814277339  21.502702474405798  120.000000
1.9764999999999995  0.000000  0.000000  0.000000  -34.48394298205871  5.780355455074855  17.61605302704465  54.99885710539562  10.192343897989355  0.9431983474350842  0.9789603207184445  24.519994935842174  -13.167312525394584  21.10286872832292  120.000000
2.0059999999999993  0.000000  0.000000  0.000000  -34.161391748565485  5.5876927179283165  15.762702519079395  54.69377050218733  9.712042728005613  1.062520616783357  3.062725613424262  23.985140975760636  -13.60564586823997  20.684609041550253  120.000000
2.0354999999999994  0.000000  0.000000  0.000000  -33.78014198625599  5.386266658649613  13.977494192063908  54.33068850402429  9.250138185621768  1.23270803321322  4.920764853151821  23.4038900333836  -13.70117919936837  20.262947054974788  120.000000
2.0649999999999995  0.000000  0.000000  0.000000  -33.344797720779866  5.185193181287991  12.293076452583346  53.9251056973765  8.813525948473611  1.4320709772158626  6.550943178924315  22.751128781480844  -13.494030333304622  19.85284675319234  120.000000
2.0944999999999996  0.000000  0.000000  0.000000  -32.86738184064149  4.992699406198868  10.735228286012743  53.49287394744386  8.409169139463618  1.6404231466148775  7.9828835860907645  22.010739092926684  -13.056789341178206  19.46874625644442  120.000000
2.123999999999999  0.000000  0.000000  0.000000  -32.364261101897256  4.81476321851476  9.322005098946523  53.048884396912875  8.044654720117107  1.8414000527485097  9.272543275620633  21.177022375225214  -12.483061761039716  19.124083913973323  120.000000
2.1534999999999993  0.000000  0.000000  0.000000  -31.855343181221325  4.654638143018889  8.063092233408904  52.60657127065322  7.727254475063796  2.0240610391800415  10.49361829606058  20.254161408860927  -11.872635386887413  18.829777152202578  120.000000
2.1829999999999994  0.000000  0.000000  0.000000  -31.36042852567951  4.512869741190414  6.9593567114989  52.17683830712401  7.461933848185164  2.181359432872863  11.720202332350555  19.254213096282008  -11.310413546752683  18.591398517587592  120.000000
2.2124999999999995  0.000000  0.000000  0.000000  -30.897173738756436  4.387376891071962  6.0043928914882905  51.766561413176014  7.250972962050816  2.3099264818756065  13.007651031416202  18.195290385015184  -10.846272089640792  18.406325599241036  120.000000
2.2419999999999995  0.000000  0.000000  0.000000  -30.47631632327706  4.276715276756805  5.187905622487683  51.38105529385627  7.0932747268285095  2.409567701589841  14.38742316588327  17.09871958511601  -10.491381379276168  18.265255068859975  120.000000
2.271499999999999  0.000000  0.000000  0.000000  -30.099244246939506  4.179668923610656  4.495538603607054  51.02607711324378  6.983563358025324  2.4826523194054144  15.870372188517164  15.984201862631776  -10.227206443767038  18.15495951286545  120.000000
2.3009999999999993  0.000000  0.000000  0.000000  -29.76020424637814  4.0936797123240005  3.9114370896238415  50.706467607889586  6.912498185251102  2.5330458931044153  17.448783830631545  14.866138441014401  -10.016442847994657  18.062169709684508  120.000000
2.3304999999999993  0.000000  0.000000  0.000000  -29.44951330048441  4.017002933042177  3.420991017201067  50.42566955110367  6.869914518466922  2.566250907076232  19.10873615228756  13.755182208468597  -9.825011362458381  17.977472952163016  120.000000
2.3599999999999994  0.000000  0.000000  0.000000  -29.157316224717132  3.948525767745807  3.012989925434541  50.18675783286549  6.846689781150489  2.5884645204257697  20.84835981385393  12.660290620809223  -9.647250109877728  17.89960744621327  120.000000
2.3894999999999995  0.000000  0.000000  0.000000  -28.87754053802108  3.887782324252294  2.677497930241388  49.99191692295723  6.8352814273772005  2.605192883115242  22.690190788191615  11.589130905247863  -9.521160382422423  17.835768631579615  120.000000
2.418999999999999  0.000000  0.000000  0.000000  -28.609863343460244  3.834869614059157  2.4051849481676255  49.84042061547686  6.8301106786805255  2.6198298817959302  24.679044738075877  10.54832241389622  -9.52390693202044  17.799031444141374  120.000000
2.4484999999999992  0.000000  0.000000  0.000000  -28.3590046254672  3.7904736938403767  2.1872896302863323  49.727996248162114  6.828289028784133  2.63429244144562  26.875481298425104  9.544708134761844  -9.758127224629192  17.804073783270088  120.000000
